<svg version="1.0" xmlns="http://www.w3.org/2000/svg" width="1024.000000pt" height="1024.000000pt" viewBox="0 0 1024.000000 1024.000000" preserveAspectRatio="xMidYMid meet">
  <g transform="translate(0.000000,1024.000000) scale(0.050000,-0.050000)" fill="#c3232f" stroke="none">
    <path d="M0 15980 l0 -4500 4500 0 4500 0 0 4500 0 4500 -4500 0 -4500 0 0 -4500z m4430 1095 l479 -835 396 0 396 0 -30 55 c-16 30 -109 190 -206 355 l-176 300 -252 -7 c-158 -5 -266 0 -292 14 -33 18 -145 184 -145 216 0 4 256 7 569 7 l569 0 320 -534 321 -535 -43 -45 -43 -46 -952 5 -951 5 -415 720 c-228 396 -420 720 -425 720 -6 0 -121 -200 -258 -445 l-247 -445 375 0 374 0 73 -110 c40 -60 73 -114 73 -120 0 -40 -1190 -8 -1234 33 -64 61 -88 9 367 810 l412 728 233 -5 232 -6 480 -835z m-2430 -1855 l0 -360 -110 0 -110 0 0 80 0 80 -160 0 -160 0 0 -80 0 -80 -110 0 -110 0 0 295 c1 419 6 423 455 424 l305 1 0 -360z m920 270 c0 -90 0 -90 71 -90 103 0 97 -106 -6 -116 l-65 -7 0 -134 c0 -145 20 -183 94 -183 36 0 46 -11 46 -50 0 -49 -4 -50 -143 -50 -201 0 -217 17 -217 241 0 158 -4 175 -40 185 -27 7 -40 27 -40 62 0 39 10 52 40 52 34 0 40 13 40 90 l0 90 110 0 110 0 0 -90z m680 40 c0 -43 -9 -50 -66 -50 -63 0 -114 -29 -114 -64 0 -9 27 -16 60 -16 53 0 60 -7 60 -60 0 -53 -7 -60 -60 -60 l-60 0 0 -210 0 -210 -120 0 -120 0 0 289 c0 402 16 427 275 430 142 1 145 0 145 -49z m1194 -227 c4 -320 2 -316 105 -333 152 -25 117 -110 -46 -110 -277 0 -293 23 -293 420 l0 302 115 -6 115 -6 4 -267z m546 187 l0 -90 187 0 c317 0 353 -30 353 -289 0 -117 -8 -156 -41 -198 l-42 -53 -348 0 -349 0 0 360 0 360 120 0 120 0 0 -90z m880 30 c0 -59 -1 -60 -110 -60 -109 0 -110 1 -110 60 0 59 1 60 110 60 109 0 110 -1 110 -60z m560 -30 c0 -87 2 -90 60 -90 53 0 60 -7 60 -60 0 -53 -7 -60 -60 -60 l-60 0 0 -136 c0 -141 20 -184 84 -184 25 0 36 -15 36 -50 0 -49 -4 -50 -140 -50 -198 0 -220 25 -220 250 0 138 -6 170 -30 170 -20 0 -30 20 -30 60 0 40 10 60 30 60 22 0 30 23 30 90 l0 90 120 0 120 0 0 -90z m-4240 -150 c0 -55 -6 -60 -66 -60 -101 0 -114 -27 -114 -234 l0 -186 -120 0 -120 0 0 201 c0 287 43 337 295 338 l125 1 0 -60z m1360 -139 c0 -234 6 -241 199 -241 l121 0 0 220 0 220 110 0 110 0 0 -270 0 -270 -329 0 c-438 0 -438 0 -448 318 l-7 222 122 0 122 0 0 -199z m2320 3 c0 -222 11 -244 124 -244 68 0 76 -5 76 -50 0 -49 -2 -50 -173 -50 -244 0 -247 3 -247 303 l0 237 110 0 110 0 0 -196z m1580 136 l0 -60 -261 0 c-218 0 -262 -5 -272 -31 -22 -58 32 -78 239 -90 233 -13 270 -25 286 -91 42 -167 -42 -208 -431 -208 l-301 0 0 50 0 50 226 0 c385 0 421 101 43 122 -230 12 -275 34 -296 139 -30 149 42 177 452 178 l315 1 0 -60z"/>
    <path d="M1509 15411 c-40 -40 -49 -69 -49 -160 l0 -111 160 0 160 0 0 160 0 160 -111 0 c-91 0 -120 -9 -160 -49z"/>
    <path d="M5340 15129 l0 -151 145 6 145 6 6 117 c8 154 -10 173 -168 173 l-128 0 0 -151z"/>
  </g>
</svg>
